<?xml version="1.0" encoding="UTF-8"?>
<!DOCTYPE svg PUBLIC "-//W3C//DTD SVG 1.1//EN" "http://www.w3.org/Graphics/SVG/1.1/DTD/svg11.dtd">
<!-- Creator: CorelDRAW -->
<svg xmlns="http://www.w3.org/2000/svg" xml:space="preserve" width="4.0638mm" height="4.0638mm" version="1.1" style="shape-rendering:geometricPrecision; text-rendering:geometricPrecision; image-rendering:optimizeQuality; fill-rule:evenodd; clip-rule:evenodd"
viewBox="0 0 406.38 406.38"
 xmlns:xlink="http://www.w3.org/1999/xlink"
 xmlns:xodm="http://www.corel.com/coreldraw/odm/2003">
 <defs>
  <style type="text/css">
   <![CDATA[
    .fil1 {fill:#E31E24}
    .fil0 {fill:#00A0E3;fill-rule:nonzero}
   ]]>
  </style>
 </defs>
 <g id="Warstwa_x0020_1">
  <metadata id="CorelCorpID_0Corel-Layer"/>
  <g>
   <path class="fil0" d="M324.03 125.01c7.69,1.8 14.56,4.54 19.23,8.58l1.23 1.13 0.14 0.14 0.11 0.1 0 0.01 0.28 0.25 0.24 0.23 0.03 0.03 0.28 0.26 0.19 0.2 0.08 0.07 0.27 0.27 0.15 0.15 0.12 0.12 0.27 0.27 0.11 0.12 0.15 0.16 0.26 0.28 0.07 0.08 0.19 0.2 0.26 0.28 0.03 0.04 0.23 0.25 0.24 0.28 0.01 0.01 0.26 0.29 0.2 0.24 0.05 0.05 0.25 0.29 0.16 0.2 0.08 0.1 0.25 0.29 0.12 0.16 0.12 0.14 0.24 0.3 0.09 0.12 0.15 0.19 0.24 0.3 0.05 0.07 0.19 0.24 0.23 0.3 0.02 0.03 0.22 0.28 0.21 0.29 0.02 0.02 0.23 0.31 0.17 0.24 0.06 0.07 0.22 0.31 0.14 0.2 0.09 0.12 0.22 0.31 0.1 0.15 0.12 0.16 0.22 0.32 0.07 0.11 0.15 0.21 0.22 0.31 0.03 0.06 0.18 0.26 0.22 0.32 0 0.01 0.21 0.31 0.18 0.28 0.03 0.03 0.21 0.32 0.15 0.24 0.06 0.08 0.32 0.51 0.09 0.13 0.2 0.32 0.08 0.14 0.72 1.13 0.02 0.05 0.18 0.27 0.19 0.31 0.01 0.01 0.19 0.31 0.15 0.27 0.04 0.05 0.32 0.53 0.07 0.1 0.18 0.31 0.1 0.17 0.09 0.15 0.19 0.31 0.06 0.12 0.12 0.19 0.22 0.38 0.15 0.24 0.18 0.31 0.01 0.02 0.17 0.28 0.16 0.29 0.02 0.02 0.18 0.3 0.13 0.24 0.08 0.13 0.08 0.13 0.07 0.12 0.07 0.13 0.08 0.13 0.08 0.12 0.12 0.21 0.85 1.47 0.42 0.73 0.42 0.74 0.37 0.66 0.05 0.08 0.32 0.58 0.1 0.16 0.27 0.5 0.14 0.24 0.23 0.42 0.18 0.33 0.18 0.34 0.36 0.66 0.27 0.49 0.09 0.18 0.31 0.57 0.05 0.09 0.35 0.66 0.01 0.01 0.35 0.67 0.04 0.07 0.31 0.61 0.35 0.67 0.13 0.23 0.22 0.44 0.17 0.32 0.18 0.36 0.2 0.4 0.14 0.27 0.25 0.49 0.09 0.19 0.29 0.57 0.05 0.11 0.33 0.66 0.01 0.02 0.33 0.68 0.03 0.06 0.3 0.62 0.07 0.15 0.26 0.54 0.11 0.23 0.22 0.45 0.15 0.31 0.17 0.38 0.19 0.39 0.13 0.29 0.23 0.49 0.09 0.2 0.26 0.57 0.06 0.12 0.3 0.65 0.01 0.04 0.31 0.69 0.03 0.05 0.28 0.64 0.06 0.14 0.25 0.55 0.1 0.22 0.2 0.48 0.14 0.3 0.17 0.39 0.16 0.39 0.13 0.31 0.21 0.47 0.09 0.22 0.24 0.57 0.05 0.13 0.27 0.65 0.02 0.05 0.29 0.7 0.02 0.04 0.26 0.66 0.05 0.12 0.24 0.58 0.08 0.21 0.19 0.49 0.12 0.3 0.16 0.4 0.15 0.39 0.12 0.31 0.18 0.48 0.09 0.23 0.21 0.56 0.06 0.14 0.24 0.65 0.02 0.06 0.04 0.11 0.23 0.62 0.25 0.68 0.04 0.12 0.22 0.59 0.07 0.2 0.18 0.51 0.1 0.29 0.15 0.42 0.13 0.37 0.12 0.34 0.15 0.46 0.09 0.25 0.18 0.55 0.06 0.16 0.21 0.64 0.02 0.07 0.24 0.71 0 0.02 0.45 1.41 0.06 0.19 0.16 0.52 0.09 0.28 0.13 0.44 0.11 0.36 0.11 0.35 0.13 0.46 0.08 0.26 0.16 0.54 0.05 0.18 0.18 0.63 0.03 0.08 0.2 0.72 0.22 0.81 0.22 0.8 0.21 0.81c0.01,0.08 0.03,0.15 0.06,0.22 0,0 0,0 0,0.01l0 0.02 0.06 0.22 0 0.02 0.06 0.22 0.06 0.23 0.02 0.08 0.02 0.05 0.02 0.1 0.01 0.02 0.03 0.11 0.02 0.11 0 0.02 0.06 0.22 0 0.01 0.06 0.23 0.13 0.47 0.11 0.46 0.19 0.73 0.04 0.2 0.24 0.94 0.02 0.06 0.21 0.88 0.09 0.34 0.15 0.61 0.15 0.61 0.08 0.35 0.22 0.88 0.01 0.08 0.23 0.96 0.05 0.2 0.18 0.77 0.12 0.48 0.11 0.5 0.18 0.76 0.05 0.22 0.22 0.98 0.02 0.06 0.21 0.93 0.08 0.34 0.14 0.65 0.15 0.63 0.28 1.28 0.02 0.09 0.21 1 0.05 0.2 0.17 0.8 0.11 0.49 0.11 0.52 0.17 0.77 0.04 0.24 0.22 1.01 0.01 0.05 0.2 0.97 0.07 0.34 0.14 0.67 0.13 0.63 0.27 1.31 0.26 1.31 0.26 1.31 0 0.01 0.25 1.31 0.04 0.25 0.2 1.02 0.01 0.04 0.18 0.99 0.07 0.32 0 0.01 0.12 0.69 0.12 0.62 0.07 0.4 0.17 0.91 0 0.01 0.01 0.1 0.18 1.03 0.04 0.17 0 0.01 0.14 0.84 0.09 0.46 0 0.01 0.09 0.55 0.14 0.75 0 0.01 0.04 0.25 0.17 1.02 0.01 0.03 0.16 0.99 0.06 0.31 0 0.01 0.11 0.69 0.1 0.6 0.06 0.41 0.15 0.89 0.01 0.12 0.16 1 0.03 0.17 0.2 1.28 0 0.01 0.19 1.27 0 0.01 0.03 0.26 0.15 0.99 0.01 0.02 0.13 0.97 0.05 0.3 0.17 1.26 0 0.01 0.05 0.4 0.12 0.85 0.01 0.12 0.16 1.12 0 0.01 0.16 1.23 0 0.01 0.15 1.23 0.02 0.26 0.11 0.95 0.01 0.01 0.1 0.94 0.04 0.27 0 0.01 0.07 0.66 0.06 0.53 0 0.01 0.04 0.39 0.09 0.8 0.1 1.05 0.02 0.13 0.07 0.78 0.04 0.39 0.04 0.52 0.07 0.64 0.09 1.15 0.1 1.13 0.08 1.12 0.08 1.11 0.06 1.09 0 0.01 0.06 1.07 0.06 1.07 0.04 1.05 0.04 1.03 0.03 1.02 0.02 1 0.01 0.98c0.14,15.88 -4.8,57.62 -36,58.31l-0.16 0 -0.15 0.01 -0.16 0 -0.07 0.01 -0.09 0 -0.13 0.01 -0.06 0 -0.12 0 -0.16 0 -0.16 0 -0.02 0 -0.06 0 -0.04 0 -0.05 0c-14.32,0 -47.51,-60.42 -67.68,-62.19l-0.26 -0.02 -0.1 -0.01 -0.19 -0.02 -0.01 0 -0.2 -0.01 -0.09 -0.01 -0.13 -0.01 -0.2 -0.02 -0.02 0 -0.23 -0.01 -0.1 -0.01 -0.15 -0.01 -0.21 -0.02 -0.04 0 -0.26 -0.02 -0.09 0 -0.4 -0.03 -0.05 -0.01 -0.29 -0.02 -0.08 0 -0.21 -0.01 -0.23 -0.02 -0.07 0 -0.32 -0.02 -0.07 -0.01 -0.47 -0.03 -0.1 -0.01 -0.33 -0.02 -0.07 0 -0.51 -0.03 -0.12 -0.01 -0.35 -0.02 -0.05 0 -0.54 -0.03 -0.15 -0.02 -0.38 -0.02 -0.03 0 -0.58 -0.03 -0.58 -0.03 -0.39 -0.03 -0.22 -0.01 -0.61 -0.03 -0.01 -0.01 -0.42 -0.02 -0.2 -0.01 -0.65 -0.03 -0.66 -0.04 -0.67 -0.04 -0.05 -0.01 -0.46 -0.02 -0.17 0 -0.7 -0.04 -0.07 -0.01 -0.48 -0.03 -0.16 0 -0.72 -0.04 -2.22 -0.11 -0.76 -0.04 -0.77 -0.04 -0.44 -0.03 -0.34 -0.01 -0.79 -0.04 -0.8 -0.04 -0.81 -0.04 -0.82 -0.04 -0.82 -0.04 -0.83 -0.04 -0.84 -0.04 0 -0.01 -0.58 -0.03 -0.26 -0.01 -0.31 -0.02 -0.13 0 -0.41 -0.02 -0.86 -0.04 -0.86 -0.04 -0.86 -0.04 -0.88 -0.04 -0.87 -0.05 -0.39 -0.02 -0.26 -0.01 -0.23 -0.01 -0.89 -0.04 -0.89 -0.04 -0.89 -0.05 -0.43 -0.02 -0.36 -0.01 -0.1 -0.01 -0.9 -0.04 -0.45 -0.03 -0.41 -0.01 -0.03 0 -0.9 -0.05 -0.48 -0.02 -0.42 -0.02 -0.03 0 -0.88 -0.04 -0.49 -0.02 -0.41 -0.02 -0.9 -0.04 -0.91 -0.05 -0.16 0 -0.74 -0.04 -0.54 -0.02 -0.36 -0.02 -0.23 -0.01 -0.74 -0.03 -0.49 -0.02 -0.47 -0.03 -0.16 -0.01 -0.8 -0.03 -0.38 -0.02 -0.58 -0.03 -0.1 0 -0.86 -0.04 -0.27 -0.01 -0.68 -0.03 -0.04 -0.01 -0.91 -0.04 -0.16 0 -0.76 -0.04 -0.03 0 -0.94 -0.04 -0.05 0 -0.79 -0.04 -0.1 -0.01 -0.88 -0.03 -0.05 -0.01 -0.76 -0.03 -0.16 -0.01 -0.92 -0.04 -0.91 -0.04 -0.9 -0.04 -0.9 -0.04 -0.88 -0.04 -18.43 -0.79 0 -20.62c0,-1.71 0.11,-3.31 0.31,-4.75 0.2,-1.48 0.52,-2.9 0.91,-4.24 0.41,-1.33 0.93,-2.56 1.48,-3.64 0.52,-1.01 1.18,-2 1.91,-2.96 0.61,-0.73 1.34,-1.43 2.16,-2.07 0.84,-0.65 1.77,-1.22 2.75,-1.67l0.17 -0.07c0.96,-0.46 2.02,-0.83 3.11,-1.05 1.2,-0.24 2.65,-0.38 4.28,-0.38 6.74,0 13.31,-0.65 19.65,-1.96 6.52,-1.31 12.72,-3.26 18.6,-5.81 5.98,-2.62 11.57,-5.68 16.69,-9.13 5.22,-3.53 10.05,-7.49 14.42,-11.86 4.38,-4.38 8.36,-9.24 11.91,-14.54 3.51,-5.22 6.53,-10.8 9.06,-16.74 2.55,-6.03 4.49,-12.25 5.71,-18.57 1.28,-6.45 1.94,-12.96 1.94,-19.51 0,-3.84 -0.23,-7.66 -0.67,-11.46zm-191.33 153.96l-0.11 0 -0.38 0.02 -0.86 0.05 -0.27 0.01 -0.37 0.02 -0.77 0.04 -0.31 0.02 -0.36 0.02 -0.7 0.04 -0.34 0.01 -0.36 0.02 -0.6 0.04 -0.38 0.02 -0.35 0.02 -0.53 0.03 -0.41 0.02 -0.33 0.02 -0.45 0.02 -0.43 0.03 -0.33 0.02 -0.38 0.02 -0.44 0.02 -0.31 0.02 -0.32 0.02 -0.46 0.03 -0.29 0.02 -0.25 0.01 -0.46 0.03 -0.28 0.02 -0.2 0.01 -0.46 0.03 -0.26 0.02 -0.14 0.01 -0.45 0.03 -0.24 0.02 -0.1 0 -0.43 0.03 -0.22 0.02 -0.06 0.01 -0.4 0.02 -0.2 0.02 -0.02 0 -0.38 0.03 -0.17 0.02c-20.17,1.77 -53.36,62.19 -67.68,62.19l-0.05 0 -0.04 0 -0.01 0 -0.02 0 -0.01 0 -0.01 0 -0.01 0 -0.01 0 -0.01 0 -0.01 0 -0.02 0 -0.01 0 -0.02 0 -0.01 0 -0.01 0 -0.01 0 -0.02 0 -0.02 0 -0.01 0 -0.01 0 -0.01 0 -0.03 0 -0.01 0 -0.02 0 -0.02 0 -0.01 0 -0.03 0 -0.02 -0.01 -0.03 0 -0.01 0 -0.03 0 -0.01 0 -0.02 0 -0.04 0 -0.03 0 -0.01 0 -0.04 0 -0.01 0 -0.01 0 -0.01 0 -0.01 0 -0.01 0 -0.01 0 -0.04 0 -0.01 0 -0.01 0 -0.02 0 -0.02 0 -0.01 0 -0.01 0 -0.02 0 -0.01 0 -0.02 0 -0.01 0 -0.01 0 -0.01 0 -0.01 0 -0.01 -0.01 -0.05 0 -0.02 0 -0.01 0 -0.02 0 -0.01 0 -0.07 0 -0.02 0 -0.01 0 -0.01 0 -0.06 0 -0.01 0 -0.01 -0.01 -0.01 0 -0.01 0 -0.04 0 -0.01 0 -0.06 0 -0.01 0 -0.07 0 -0.01 0 -0.01 0 -0.57 -0.03 -0.12 -0.01 -0.16 -0.01 -0.27 -0.02 -0.01 0 -0.28 -0.02 -0.14 -0.02 -0.14 -0.01 -0.28 -0.02 0 -0.01 -0.27 -0.02 -0.15 -0.02 -0.13 -0.02 -0.27 -0.03 -0.01 0 -0.01 0 -0.25 -0.04 -0.15 -0.02 -0.12 -0.02 -0.27 -0.04 -0.02 0 -0.24 -0.04 -0.17 -0.03 -0.1 -0.02 -0.04 0 -0.22 -0.04 -0.04 -0.01 -0.22 -0.04 -0.17 -0.04 -0.09 -0.01 -0.26 -0.06 -0.05 -0.01 -0.21 -0.04 -0.06 -0.02 -0.12 -0.02 -0.08 -0.02 -0.25 -0.06 -0.26 -0.06 -0.18 -0.05 -0.07 -0.02 -0.25 -0.06 -0.06 -0.02 -0.01 0 -0.01 0 -0.17 -0.05 -0.19 -0.06 -0.06 -0.01 -0.24 -0.07 -0.07 -0.03 -0.18 -0.05 -0.2 -0.06 -0.04 -0.02 -0.1 -0.02 -0.14 -0.05 -0.08 -0.03 -0.17 -0.05 -0.2 -0.07 -0.03 -0.02 -0.24 -0.08 -0.09 -0.03 -0.15 -0.06 -0.11 -0.04 -0.1 -0.03 -0.02 -0.01 -0.24 -0.09 -0.23 -0.1 -0.23 -0.09 -0.23 -0.1 -0.11 -0.04 -0.02 -0.01 -0.1 -0.04 -0.22 -0.1 -0.01 0 -0.23 -0.1 -0.22 -0.11 -0.22 -0.1 -0.14 -0.07 -0.09 -0.04 -0.11 -0.05 -0.11 -0.06 -0.22 -0.11 -0.21 -0.11 -0.13 -0.06 -0.09 -0.05 -0.15 -0.08 -0.07 -0.04 -0.01 0 -0.2 -0.11 -0.21 -0.12 -0.21 -0.12 -0.03 -0.02 -0.18 -0.11 -0.14 -0.07 -0.03 -0.02 -0.04 -0.03 -0.21 -0.12 -0.03 -0.02 -0.18 -0.11 -0.13 -0.09 -0.07 -0.04 -0.21 -0.13 -0.03 -0.02 -0.14 -0.09 -0.03 -0.02 -0.14 -0.1 -0.06 -0.04 -0.2 -0.13 -0.04 -0.03 -0.16 -0.11 -0.14 -0.1 -0.24 -0.17 -0.06 -0.04 -0.3 -0.22 -0.29 -0.22 -0.29 -0.22 -0.03 -0.03 -0.25 -0.2 -0.29 -0.23 -0.28 -0.23 -0.13 -0.11 -0.15 -0.13 -0.27 -0.24 -0.27 -0.24 -0.22 -0.2 -0.05 -0.05 -0.27 -0.25 -0.26 -0.25 -0.26 -0.26 -0.04 -0.04 -0.22 -0.22 -0.26 -0.26 -0.25 -0.26 -0.13 -0.13 -0.12 -0.14c-12.45,-13.45 -14.88,-37.59 -14.78,-48.8l0.01 -0.98 0.02 -1 0.03 -1.02 0.04 -1.03 0.04 -1.05 0.06 -1.07 0.06 -1.07 0 -0.01 0.07 -1.09 0.07 -1.11 0.09 -1.12 0.09 -1.13 0.1 -1.15 0.1 -1.16 0.11 -1.17 0.12 -1.18 0.13 -1.19 0 -0.01 0.13 -1.19 0 -0.01 0.14 -1.21 0.15 -1.22 0.15 -1.23 0 -0.01 0.16 -1.23 0 -0.01 0.16 -1.24 0.17 -1.25 0 -0.01 0.17 -1.26 0.18 -1.27 0.19 -1.27 0 -0.01 0.19 -1.27 0 -0.01 0.2 -1.28 0.2 -1.29 0.21 -1.3 0.21 -1.29 0 -0.01 0.22 -1.3 0.22 -1.3 0 -0.01 0.22 -1.3 0 -0.01 0.24 -1.3 0 -0.01 0.23 -1.3 0 -0.01 0.24 -1.31 0.24 -1.31 0 -0.01 0.25 -1.31 0.25 -1.31 0.25 -1.31 0 -0.01 0.26 -1.31 0.26 -1.31 0.27 -1.31 0.26 -1.3 0.27 -1.31 0.28 -1.3 0.27 -1.29 0.28 -1.29 0.29 -1.29 0.28 -1.28 0.29 -1.28 0.28 -1.27 0.3 -1.26 0.29 -1.26 0.29 -1.25 0.3 -1.24 0.3 -1.23 0.3 -1.22 0.3 -1.22 0.3 -1.2 0.3 -1.19 0.31 -1.19 0.3 -1.17 0.21 -0.81 0.1 -0.36 0.12 -0.44 0.21 -0.75 0.01 -0.06c4.27,-15.3 10.95,-30.3 18.91,-44.32l0.2 -0.34 0.22 -0.4 0.42 -0.73 0.04 -0.06 0.68 -1.17 0.13 -0.24 0.55 -0.92 0.16 -0.29c3.81,-6.48 8.38,-13.99 14.37,-19.47l1.42 -1.31c5.35,-4.63 13.57,-7.54 22.61,-9.3l-0.01 -0.02 -0.06 -0.15 -0.01 -0.02 -0.06 -0.17 -0.02 -0.06 -0.04 -0.11 -0.04 -0.14 -0.01 -0.04 -0.05 -0.17 0 -0.04 -0.03 -0.14 -0.02 -0.12 -0.01 -0.05 -0.03 -0.18 0 -0.02 -0.02 -0.16 0 -0.1 -0.01 -0.08 0 -0.18c0,-2.57 2.15,-4.92 5.68,-6.7l33.46 0 0.06 0.03 0.16 0.08 0.07 0.04 0.23 0.12 0.05 0.03 0.18 0.1 0.16 0.08 0.06 0.04 0.22 0.13 0.05 0.03 0.16 0.1 0.15 0.09 0.06 0.04 0.2 0.13 0.05 0.03 0.15 0.11 0.19 0.13 0.19 0.14 0.05 0.03 0.14 0.11c1.97,1.55 3.11,3.32 3.11,5.11l-0.04 0.58c19.58,2.05 53.76,7.64 73.08,7.71 11.05,-0.04 26.95,-1.88 42.2,-3.84l0.72 1.51 0.07 0.14c0.53,1.16 0.94,2.43 1.2,3.74 0.25,1.24 0.38,2.69 0.38,4.29 0,1.56 -0.13,2.99 -0.38,4.23 -0.26,1.31 -0.69,2.61 -1.24,3.86l-0.1 0.2c-0.52,1.24 -1.19,2.47 -1.96,3.66 -0.69,1.04 -1.54,2.06 -2.49,3.05 -0.93,0.91 -1.96,1.75 -3.14,2.52 -1.15,0.77 -2.31,1.41 -3.44,1.87l-0.17 0.07c-1.12,0.48 -2.4,0.87 -3.76,1.13 -1.33,0.25 -2.79,0.38 -4.36,0.38 -6.72,0 -13.28,0.66 -19.65,1.96 -6.39,1.3 -12.46,3.25 -18.15,5.83 -5.67,2.51 -11.01,5.52 -15.95,9 -4.91,3.45 -9.5,7.39 -13.69,11.8 -4.15,4.38 -7.85,9.16 -11.07,14.3 -3.25,5.19 -6.06,10.76 -8.38,16.68 -2.29,5.9 -4.04,12.01 -5.22,18.25 -1.17,6.19 -1.81,12.63 -1.91,19.31l0 24.4zm248.36 -73.48l0 -0.01 0 0.01z"/>
  </g>
  <path class="fil1" d="M305.51 152.59c1.03,-5.08 1.55,-10.46 1.55,-16.12 0,-5.7 -0.52,-11.11 -1.53,-16.18 -1.02,-5.09 -2.59,-10.13 -4.68,-15.05 -2.08,-4.81 -4.57,-9.37 -7.46,-13.66 -2.82,-4.23 -6.08,-8.19 -9.75,-11.85 -3.62,-3.63 -7.59,-6.89 -11.88,-9.78 -4.26,-2.89 -8.88,-5.42 -13.77,-7.56 -4.96,-2.11 -9.99,-3.71 -15.05,-4.73 -5.23,-1 -10.65,-1.54 -16.22,-1.54l-127.4 0 0 41.88 127.4 0c2.58,0 5.13,0.23 7.66,0.71 2.48,0.47 4.97,1.25 7.42,2.31 2.32,0.96 4.48,2.13 6.43,3.43 2.04,1.34 3.96,2.91 5.75,4.66 1.74,1.75 3.31,3.66 4.69,5.7 1.38,2.05 2.58,4.22 3.56,6.47 1.06,2.38 1.86,4.86 2.37,7.38 0.53,2.61 0.8,5.23 0.8,7.81 0,2.53 -0.26,5.13 -0.8,7.75 -0.51,2.5 -1.28,4.94 -2.31,7.3 -1,2.41 -2.19,4.64 -3.53,6.65 -1.42,2.12 -3.02,4.07 -4.71,5.76l-0.11 0.06c-1.76,1.71 -3.65,3.27 -5.63,4.6 -1.93,1.3 -4.11,2.47 -6.52,3.47 -2.45,1.05 -4.94,1.83 -7.41,2.3 -2.52,0.48 -5.07,0.72 -7.66,0.72 -5.73,0 -11.12,0.52 -16.13,1.54 -4.98,1.01 -9.82,2.58 -14.43,4.67 -4.74,2.09 -9.09,4.54 -13.07,7.34 -4.01,2.82 -7.72,6 -11.07,9.52 -3.32,3.5 -6.3,7.37 -8.93,11.56 -2.63,4.2 -4.93,8.78 -6.86,13.67 -1.89,4.84 -3.33,9.9 -4.32,15.12 -1,5.26 -1.54,10.63 -1.6,16.07l0.03 7.81 41.66 0 0 -6.96c0,-2.37 0.18,-4.78 0.51,-7.17 0.32,-2.35 0.84,-4.67 1.5,-6.92l0.03 -0.14c0.7,-2.25 1.61,-4.42 2.66,-6.46 1.09,-2.11 2.35,-4.04 3.7,-5.77l0.14 -0.14c1.54,-1.88 3.25,-3.58 5.05,-4.98 1.79,-1.39 3.82,-2.63 6.02,-3.65 2.18,-1.07 4.66,-1.89 7.31,-2.44 2.54,-0.52 5.18,-0.8 7.8,-0.8 5.57,0 10.99,-0.54 16.21,-1.58 5.07,-0.98 10.1,-2.58 15.05,-4.71 4.87,-2.1 9.49,-4.65 13.82,-7.57 4.2,-2.83 8.15,-6.09 11.8,-9.74 3.75,-3.75 7.02,-7.71 9.79,-11.84 2.83,-4.22 5.32,-8.84 7.46,-13.82 2.04,-4.78 3.6,-9.84 4.66,-15.1zm-107.99 176.33c0.32,-1.61 0.49,-3.47 0.49,-5.5 0,-1.9 -0.17,-3.7 -0.5,-5.31 -0.33,-1.59 -0.85,-3.18 -1.54,-4.73l-0.07 -0.17c-0.71,-1.67 -1.55,-3.19 -2.45,-4.53 -0.91,-1.34 -2.02,-2.65 -3.26,-3.9 -1.22,-1.24 -2.5,-2.32 -3.84,-3.23 -1.32,-0.89 -2.86,-1.72 -4.55,-2.44l-0.17 -0.07c-1.55,-0.69 -3.14,-1.21 -4.73,-1.54 -1.61,-0.33 -3.4,-0.5 -5.31,-0.5 -1.92,0 -3.7,0.17 -5.3,0.49 -1.72,0.35 -3.42,0.89 -5.02,1.58 -1.62,0.72 -3.18,1.57 -4.66,2.55 -1.49,0.97 -2.85,2.06 -4.04,3.23 -1.21,1.19 -2.31,2.48 -3.25,3.86 -0.94,1.37 -1.77,2.89 -2.46,4.5l-0.07 0.17c-0.69,1.55 -1.21,3.14 -1.54,4.73 -0.33,1.61 -0.5,3.41 -0.5,5.31 0,2.03 0.17,3.89 0.49,5.5 0.33,1.68 0.87,3.37 1.58,5 0.74,1.69 1.59,3.27 2.55,4.7 0.96,1.42 2.04,2.73 3.2,3.87 1.24,1.21 2.57,2.29 3.95,3.19 1.5,0.97 3.11,1.84 4.82,2.59 3.23,1.32 6.66,2 10.25,2 1.96,0 3.76,-0.17 5.34,-0.48 1.62,-0.33 3.25,-0.84 4.78,-1.49 1.74,-0.8 3.32,-1.65 4.65,-2.55 1.37,-0.92 2.64,-1.98 3.8,-3.16 1.3,-1.34 2.39,-2.65 3.25,-3.94 0.95,-1.42 1.8,-2.99 2.49,-4.63l0.04 -0.1c0.72,-1.64 1.25,-3.32 1.58,-5z"/>
 </g>
</svg>
